<?xml version="1.0" encoding="UTF-8" standalone="no"?><!DOCTYPE svg PUBLIC "-//W3C//DTD SVG 1.1//EN" "http://www.w3.org/Graphics/SVG/1.1/DTD/svg11.dtd"><svg width="100%" height="100%" viewBox="0 0 4167 4167" version="1.1" xmlns="http://www.w3.org/2000/svg" xmlns:xlink="http://www.w3.org/1999/xlink" xml:space="preserve" xmlns:serif="http://www.serif.com/" style="fill-rule:evenodd;clip-rule:evenodd;stroke-linecap:round;stroke-linejoin:round;stroke-miterlimit:1.5;"><g><path d="M3108.8,4112.58c564.82,0 1023.38,-458.561 1023.38,-1023.38l-0,-2046.76c-0,-564.82 -458.562,-1023.38 -1023.38,-1023.38l-2046.76,0c-564.819,0 -1023.38,458.562 -1023.38,1023.38l-0,2046.76c-0,564.82 458.562,1023.38 1023.38,1023.38l2046.76,0Z" style="fill:url(#_Linear1);stroke:#000;stroke-width:2.08px;"/><path d="M180.373,2599.29c20.349,-363.836 452.221,-192.506 639.893,-80.852c187.671,111.653 226.11,17.325 253.243,231.007c16.673,139.413 23.469,279.554 20.35,419.663c-284.876,24.806 -571.046,-37.299 -807.214,-175.18c-117.578,-73.153 -336.905,-304.16 -108.534,-385.012" style="fill:#ffab9d;fill-rule:nonzero;stroke:#000;stroke-width:37.5px;stroke-linecap:butt;stroke-miterlimit:2;"/><path d="M178.111,2608.91c668.135,462.493 662.815,258.556 662.815,258.556" style="fill:none;stroke:#000;stroke-width:37.5px;"/><path d="M1731.15,718.488c-4.098,-26.099 -3.265,-52.637 2.432,-77.492c17.305,-58.422 59.751,-98.621 110.511,-104.663c8.893,-37.175 32.933,-64.975 63.599,-73.545c76.843,-0.832 152.366,40.484 206.209,112.812c105.099,138.763 169.103,316.439 180.413,500.832l3.057,20.982l-16.793,2.446c-63.438,12.225 -127.728,19.203 -192.451,20.889l-55.974,8.153c-88.339,5.725 -104.829,-13.301 -124.173,-67.622c-11.744,-28.773 -26.809,-55.471 -44.69,-79.2c-61.475,-73.232 -107.095,-164.233 -132.14,-263.592Z" style="fill:#ffab9d;fill-rule:nonzero;stroke:#000;stroke-width:37.5px;stroke-linecap:butt;stroke-miterlimit:2;"/><path d="M3971.35,2543.71c-20.35,-363.836 -454.482,-202.131 -642.154,-90.478c-187.672,111.654 -226.111,17.326 -253.244,231.007c-16.673,139.413 -23.469,279.555 -20.35,419.663c284.876,24.806 571.047,-37.298 807.215,-175.18c117.577,-73.152 336.905,-304.159 108.533,-385.012" style="fill:#ffab9d;fill-rule:nonzero;stroke:#000;stroke-width:37.5px;stroke-linecap:butt;stroke-miterlimit:2;"/><path d="M3977.71,2547.69c-523.307,302.391 -702.584,234.573 -702.584,234.573" style="fill:none;stroke:#000;stroke-width:37.5px;"/><path d="M2082.63,1004.65c-193.517,-491.544 -227.931,-463.978 -227.931,-463.978" style="fill:none;stroke:#000;stroke-width:37.5px;"/><path d="M2028.34,994.662c440.321,0 851.449,62.35 1067.96,498.798c192.792,485.703 217.703,711.699 228.443,1205.7c-25.783,152.783 -31.401,137.498 -364.276,561.999c-203.679,259.743 -389.514,357.138 -821.32,342.798c-339.364,-12.47 -502.228,43.231 -836.173,-201.137c-329.701,-241.262 109.178,87.872 -372.461,-279.997c-385.139,-294.165 -138.601,-996.516 18.917,-1477.86c163.6,-498.797 603.921,-611.65 1078.3,-650.307" style="fill:#74dda4;fill-rule:nonzero;stroke:#000;stroke-width:37.5px;stroke-linecap:butt;stroke-miterlimit:2;"/><path d="M2145.93,1959.41c98.222,567.145 1030.57,417.659 896.841,-154.744c-120.133,-513.06 -929.329,-371.086 -896.841,154.744" style="fill:#fff;fill-rule:nonzero;"/><path d="M2589.44,2329.74c-58.077,0.243 -115.789,-9.151 -170.755,-27.794c-152.315,-50.098 -263.296,-182.329 -285.599,-340.287c-10.263,-122.727 32.648,-244.152 117.866,-333.526c80.841,-82.459 187.366,-135.413 302.221,-150.237c105.267,-16.564 213.145,1.928 306.755,52.583c100.959,58.625 172.173,157.311 195.688,271.178c41.417,145.059 -3.808,301.557 -116.355,402.635c-97.462,82.518 -221.819,127.113 -349.821,125.448Zm-429.91,-371.836c21.065,148.222 125.27,272.253 268.221,319.253c169.848,56.471 357.555,21.141 494.887,-93.147c103.667,-95.121 145.446,-240.359 108.044,-375.592c-47.925,-211.135 -259.531,-347.581 -472.976,-304.982c-232.845,19.818 -410.368,222.438 -398.176,454.468Z" style="fill:#010101;fill-rule:nonzero;"/><path d="M1031.49,2051.8c126.933,493.528 921.774,366.578 892.308,-128.453c-35.511,-593.436 -1013.95,-481.51 -892.308,128.453" style="fill:#fff;fill-rule:nonzero;"/><path d="M1456.11,2377.07c-80.813,0.603 -160.525,-18.758 -231.955,-56.339c-103.38,-55.7 -177.966,-152.84 -204.755,-266.671c-40.166,-156.64 15.489,-322.934 142.044,-424.42c152.597,-115.762 356.492,-141.604 533.42,-67.606c144.32,62.733 239.04,203.992 241.777,360.569c15.867,262.915 -194.177,416.156 -395.154,450.711c-28.319,3.442 -56.863,4.698 -85.377,3.756Zm-409.51,-328.268c54.061,215.858 275.402,350.658 493.376,300.474c190.399,-30.047 389.11,-174.275 373.999,-421.415c-1.861,-147.368 -90.8,-280.595 -226.666,-339.536c-168.223,-70.2 -361.998,-45.508 -506.976,64.602c-117.697,94.933 -169.93,249.554 -133.733,395.875Z" style="fill:#010101;fill-rule:nonzero;"/><ellipse cx="1250.6" cy="1970.68" rx="134.488" ry="144.979" style="fill:#010101;"/><ellipse cx="2376.37" cy="1934.62" rx="132.222" ry="144.979" style="fill:#010101;"/><path d="M2309.43,3071.82c-38.427,-6.555 -75.935,-28.112 -110.496,-63.507c-37.473,-37.82 -78.035,-60.938 -119.576,-68.153c-43.271,-0.035 -85.99,18.983 -125.259,55.762c-84.446,60.408 -180.202,128.561 -235.185,-71.251c-27.705,-101.019 -28.064,-224.258 -0.949,-325.277c29.432,-118.128 86.045,-197.957 150.491,-212.204l224.527,-20.382l213.129,55.502c89.382,77.447 117.462,150.753 135.319,314.94c0.896,13.073 1.365,26.249 1.403,39.441c0.451,154.539 -58.235,284.371 -133.404,295.129Z" style="fill:#1f2023;fill-rule:nonzero;"/><path d="M2275.16,2440.46c6.885,78.532 6.142,157.495 -2.219,235.884c-23.444,27.705 -56.465,46.627 -93.176,53.389c-45.695,-7.117 -84.58,-35.925 -103.045,-76.339c-4.083,-85.538 -1.267,-171.237 8.423,-256.343c0.298,-2.587 1.718,-4.912 3.883,-6.358c2.164,-1.447 4.855,-1.87 7.359,-1.157c39.046,11.122 178.775,50.924 178.775,50.924Z" style="fill:#fff;fill-rule:nonzero;stroke:#000;stroke-width:25px;stroke-linecap:butt;stroke-miterlimit:2;"/><path d="M1854.03,2436.09c-63.518,147.49 33.919,442.942 205.364,225.791c-5.011,-92.708 -2.377,-185.655 7.875,-277.955l-213.239,52.164Z" style="fill:#fff;fill-rule:nonzero;stroke:#000;stroke-width:25px;stroke-linecap:butt;stroke-miterlimit:2;"/><ellipse cx="2614.07" cy="2703.1" rx="48.723" ry="56.007" style="fill:#9dd0ff;stroke:#000;stroke-width:37.5px;"/><ellipse cx="2769.39" cy="2418.58" rx="48.735" ry="51.817" style="fill:#9dd0ff;stroke:#000;stroke-width:37.5px;"/><ellipse cx="2912.23" cy="1588.95" rx="89.89" ry="101.709" style="fill:#9dd0ff;stroke:#000;stroke-width:37.5px;"/><ellipse cx="2866.21" cy="2016.2" rx="55.89" ry="67.562" style="fill:#9dd0ff;stroke:#000;stroke-width:37.5px;"/></g><defs><linearGradient id="_Linear1" x1="0" y1="0" x2="1" y2="0" gradientUnits="userSpaceOnUse" gradientTransform="matrix(2.50656e-13,4093.53,-4093.53,2.50656e-13,2085.42,19.0575)"><stop offset="0" style="stop-color:#00caff;stop-opacity:1"/><stop offset="0.58" style="stop-color:#5887eb;stop-opacity:1"/><stop offset="1" style="stop-color:#8168e2;stop-opacity:1"/></linearGradient></defs></svg>