<?xml version="1.0" encoding="UTF-8" standalone="no"?><!DOCTYPE svg PUBLIC "-//W3C//DTD SVG 1.1//EN" "http://www.w3.org/Graphics/SVG/1.1/DTD/svg11.dtd"><svg width="100%" height="100%" viewBox="0 0 4167 4167" version="1.1" xmlns="http://www.w3.org/2000/svg" xmlns:xlink="http://www.w3.org/1999/xlink" xml:space="preserve" xmlns:serif="http://www.serif.com/" style="fill-rule:evenodd;clip-rule:evenodd;stroke-linejoin:round;stroke-miterlimit:2;"><g><path d="M145.806,2505.59c20.792,-371.733 462.036,-196.684 653.781,-82.607c191.745,114.077 231.019,17.701 258.741,236.021c17.034,142.439 23.978,285.622 20.791,428.771c-291.059,25.344 -583.44,-38.108 -824.734,-178.982c-120.13,-74.74 -344.217,-310.761 -110.889,-393.369" style="fill:#8c8c8c;fill-rule:nonzero;stroke:#000;stroke-width:37.5px;"/><path d="M143.496,2515.43c682.636,472.531 677.2,264.168 677.2,264.168" style="fill:none;stroke:#000;stroke-width:37.5px;stroke-linecap:round;stroke-miterlimit:1.5;"/><path d="M1730.25,583.974c-4.187,-26.665 -3.337,-53.779 2.485,-79.174c17.68,-59.69 61.047,-100.761 112.909,-106.934c9.086,-37.982 33.648,-66.385 64.979,-75.142c78.512,-0.85 155.673,41.364 210.685,115.261c107.38,141.775 172.773,323.307 184.329,511.702l3.123,21.437l-17.157,2.499c-64.816,12.491 -130.501,19.62 -196.628,21.343l-57.189,8.33c-90.256,5.849 -107.104,-13.59 -126.869,-69.09c-11.999,-29.397 -27.391,-56.675 -45.66,-80.919c-62.809,-74.821 -109.418,-167.797 -135.007,-269.313Z" style="fill:#8c8c8c;fill-rule:nonzero;stroke:#000;stroke-width:37.5px;"/><path d="M4019.06,2448.81c-20.792,-371.733 -464.347,-206.519 -656.092,-92.442c-191.745,114.077 -231.018,17.702 -258.74,236.021c-17.035,142.439 -23.978,285.622 -20.792,428.771c291.06,25.344 583.441,-38.108 824.735,-178.982c120.129,-74.74 344.217,-310.761 110.889,-393.368" style="fill:#8c8c8c;fill-rule:nonzero;stroke:#000;stroke-width:37.5px;"/><path d="M4025.56,2452.88c-534.666,308.955 -717.833,239.665 -717.833,239.665" style="fill:none;stroke:#000;stroke-width:37.5px;stroke-linecap:round;stroke-miterlimit:1.5;"/><path d="M2089.35,876.342c-197.717,-502.211 -232.878,-474.047 -232.878,-474.047" style="fill:none;stroke:#000;stroke-width:37.5px;stroke-linecap:round;stroke-miterlimit:1.5;"/><path d="M2033.88,866.143c449.878,-0 869.93,63.702 1091.14,509.623c196.977,496.245 222.428,727.146 233.401,1231.87c-26.342,156.099 -32.081,140.483 -372.182,574.197c-208.1,265.38 -397.967,364.89 -839.145,350.238c-346.729,-12.741 -513.129,44.17 -854.321,-205.502c-336.857,-246.499 111.547,89.779 -380.545,-286.075c-393.498,-300.548 -141.609,-1018.14 19.328,-1509.93c167.15,-509.623 617.028,-624.926 1101.7,-664.421" style="fill:#8c8c8c;fill-rule:nonzero;stroke:#000;stroke-width:37.5px;"/><path d="M2154.02,1851.83c100.354,579.454 1052.94,426.724 916.306,-158.103c-122.74,-524.195 -949.5,-379.139 -916.306,158.103" style="fill:#fff;fill-rule:nonzero;"/><path d="M2607.16,2230.2c-59.336,0.248 -118.301,-9.35 -174.46,-28.397c-155.622,-51.186 -269.01,-186.287 -291.798,-347.673c-10.485,-125.39 33.357,-249.451 120.424,-340.765c82.596,-84.249 191.432,-138.352 308.781,-153.498c107.551,-16.923 217.771,1.97 313.412,53.725c103.151,59.897 175.91,160.725 199.935,277.063c42.317,148.207 -3.89,308.102 -118.88,411.374c-99.577,84.309 -226.633,129.872 -357.414,128.171Zm-439.24,-379.907c21.523,151.439 127.989,278.162 274.043,326.183c173.534,57.696 365.314,21.599 505.628,-95.169c105.916,-97.185 148.603,-245.576 110.389,-383.744c-48.965,-215.718 -265.164,-355.125 -483.241,-311.601c-237.9,20.248 -419.276,227.265 -406.819,464.331Z" style="fill:#010101;fill-rule:nonzero;"/><path d="M1015.39,1946.23c129.688,504.24 941.781,374.535 911.675,-131.241c-36.282,-606.316 -1035.96,-491.96 -911.675,131.241" style="fill:#fff;fill-rule:nonzero;"/><path d="M1449.23,2278.55c-82.567,0.616 -164.009,-19.165 -236.989,-57.562c-105.624,-56.909 -181.829,-156.157 -209.199,-272.459c-41.038,-160.04 15.825,-329.943 145.127,-433.631c155.909,-118.275 364.229,-144.678 544.997,-69.074c147.452,64.095 244.228,208.42 247.025,368.395c16.211,268.621 -198.392,425.189 -403.731,460.493c-28.933,3.517 -58.097,4.8 -87.23,3.838Zm-418.398,-335.393c55.234,220.543 281.38,358.269 504.084,306.996c194.532,-30.7 397.555,-178.058 382.116,-430.562c-1.9,-150.566 -92.77,-286.685 -231.585,-346.905c-171.874,-71.724 -369.854,-46.496 -517.979,66.004c-120.252,96.993 -173.619,254.97 -136.636,404.467Z" style="fill:#010101;fill-rule:nonzero;"/><ellipse cx="1239.26" cy="1863.34" rx="137.407" ry="148.125" style="fill:#010101;"/><ellipse cx="2389.47" cy="1826.5" rx="135.091" ry="148.125" style="fill:#010101;"/><path d="M2321.07,2988.39c-39.262,-6.697 -77.583,-28.722 -112.894,-64.884c-38.287,-38.641 -79.729,-62.262 -122.172,-69.633c-44.21,-0.035 -87.856,19.395 -127.977,56.972c-86.279,61.72 -184.113,131.352 -240.29,-72.797c-28.306,-103.211 -28.673,-229.125 -0.97,-332.336c30.071,-120.693 87.913,-202.254 153.757,-216.81l229.4,-20.825l217.756,56.707c91.321,79.128 120.011,154.024 138.255,321.775c0.916,13.357 1.395,26.819 1.434,40.297c0.461,157.893 -59.499,290.544 -136.299,301.534Z" style="fill:#1f2023;fill-rule:nonzero;"/><path d="M2286.06,2343.32c7.034,80.237 6.275,160.914 -2.267,241.004c-23.953,28.307 -57.691,47.639 -95.199,54.548c-46.686,-7.272 -86.416,-36.705 -105.281,-77.995c-4.176,-87.471 -1.289,-175.107 8.632,-262.134c0.298,-2.587 1.718,-4.911 3.883,-6.358c2.164,-1.446 4.855,-1.869 7.359,-1.156c39.588,11.276 182.873,52.091 182.873,52.091Z" style="fill:#fff;fill-rule:nonzero;stroke:#000;stroke-width:25px;"/><path d="M1855.79,2338.86c-64.897,150.692 34.655,452.556 209.82,230.693c-5.119,-94.721 -2.428,-189.685 8.047,-283.989l-217.867,53.296Z" style="fill:#fff;fill-rule:nonzero;stroke:#000;stroke-width:25px;"/><ellipse cx="2632.32" cy="2611.66" rx="49.78" ry="57.222" style="fill:none;stroke:#000;stroke-width:37.5px;stroke-linecap:round;stroke-miterlimit:1.5;"/><ellipse cx="2791.01" cy="2320.96" rx="49.793" ry="52.941" style="fill:none;stroke:#000;stroke-width:37.5px;stroke-linecap:round;stroke-miterlimit:1.5;"/><ellipse cx="2889.94" cy="1909.86" rx="57.103" ry="69.028" style="fill:none;stroke:#000;stroke-width:37.5px;stroke-linecap:round;stroke-miterlimit:1.5;"/></g></svg>